<?xml version="1.0" encoding="UTF-8"?>
<svg id="Layer_1" xmlns="http://www.w3.org/2000/svg" version="1.1" viewBox="0 0 309.38 78.76">
  <!-- Generator: Adobe Illustrator 29.4.0, SVG Export Plug-In . SVG Version: 2.1.0 Build 152)  -->
  <defs>
    <style>
      .st0 {
        fill: #f7941d;
      }

      .st1 {
        fill: #fff;
      }

      .st2 {
        fill: purple;
      }
    </style>
  </defs>
  <g>
    <path class="st1" d="M31.24,39.31c3.45-2.93,5.63-7.29,5.63-12.17,0-8.07-5.98-14.75-13.75-15.83v6.12c4.43,1.01,7.74,4.97,7.74,9.69,0,3.94-2.28,7.34-5.61,8.96h0c-.66.33-1.38.58-2.11.75v4.93c.73.17,1.45.42,2.13.75,3.33,1.6,5.61,5.02,5.61,8.96,0,4.74-3.31,8.7-7.74,9.69-.71.16-1.46.24-2.21.24s-1.5-.09-2.21-.24c-4.43-1.01-7.74-4.97-7.74-9.69v-9.95h7.74v-4.45h-7.74v-9.95c0-4.74,3.31-8.7,7.74-9.69v-6.12c-7.81,1.08-13.79,7.76-13.79,15.83v24.34c0,8.07,6,14.75,13.75,15.83.51.07,1.03.12,1.57.14h.66c.75,0,1.5-.05,2.21-.16,7.77-1.08,13.75-7.76,13.75-15.83,0-4.88-2.18-9.24-5.63-12.17,0,0,0,.02,0,.02Z"/>
    <path class="st2" d="M20.89,58.35c-3.78,0-6.87-3.09-6.87-6.87v-6.87h6.87c1.05,0,2.06.23,3,.68,2.39,1.15,3.87,3.52,3.87,6.19,0,3.78-3.09,6.87-6.87,6.87Z"/>
    <path class="st0" d="M14.04,34.01v-6.87c0-3.78,3.09-6.87,6.87-6.87s6.87,3.09,6.87,6.87c0,2.6-1.43,4.93-3.75,6.12l-.14.07c-.92.45-1.94.68-2.98.68h-6.87Z"/>
  </g>
  <g>
    <path class="st1" d="M72.19,21.48l2.92,2.92v11.69l-2.92,2.92,2.92,2.92v12.44l-2.92,2.92h-15.2V21.48s15.2,0,15.2,0ZM68.47,36.16l.66-.7v-7.59l-.66-.7h-5.46v8.99s5.46,0,5.46,0ZM68.47,41.96h-5.46v9.47h5.46l.66-.7v-8.09l-.66-.66v-.02Z"/>
    <path class="st1" d="M78.99,57.26V21.48h15.45l2.92,2.92v16.02l-2.92,2.92,2.92,13.93h-5.89l-2.92-13.93h-3.58v13.93h-5.98v-.02h0ZM90.7,37.52l.66-.7v-8.86l-.66-.66h-5.75v10.22h5.75Z"/>
    <path class="st1" d="M114.67,49.53h-7.34l-1.61,7.73h-6.12l8.47-35.8h5.85l8.47,35.8h-6.12l-1.61-7.73h.01ZM113.49,43.75l-2.49-12.05-2.49,12.05s4.98,0,4.98,0Z"/>
    <path class="st1" d="M125.05,57.26V21.48h6.46l7.77,21.95v-21.95h5.98v35.8h-6.46l-7.77-21.95v21.95h-5.98s0-.02,0-.02Z"/>
    <path class="st1" d="M164.56,21.48l2.92,2.92v29.95l-2.92,2.92h-15.16V21.48h15.16ZM160.76,51.43l.66-.7v-22.86l-.66-.7h-5.32v24.24h5.32v.02Z"/>
    <path class="st1" d="M198.86,21.62v5.77h-11.1v9.15h8.21v5.77h-8.21v14.94h-5.94V21.64h17.06l-.02-.02h0Z"/>
    <path class="st1" d="M201.94,57.25V21.64h17.06v5.77h-11.1v8.85h8.24v5.77h-8.24v9.47h11.1v5.77h-17.06s0-.02,0-.02Z"/>
    <path class="st1" d="M238.8,57.25h-16.35V21.64h5.99v29.86h10.36v5.77-.02Z"/>
    <path class="st1" d="M257.92,57.25h-16.35V21.64h5.99v29.86h10.36v5.77-.02Z"/>
    <path class="st1" d="M274.17,49.56h-7.3l-1.6,7.69h-6.09l8.43-35.61h5.82l8.43,35.61h-6.09l-1.6-7.69ZM273.01,43.79l-2.49-12.01-2.49,12.01h4.98,0Z"/>
    <path class="st1" d="M295.35,31.9v-3.75l-.72-.69h-4.54l-.69.69v7.4l.69.69h8.33l2.91,2.91v15.19l-2.91,2.91h-12.08l-2.91-2.91v-7.35h5.94v3.8l.69.69h4.54l.72-.69v-8.06l-.72-.69h-8.29l-2.91-2.91v-14.57l2.91-2.91h12.08l2.91,2.91v7.35h-5.99.04Z"/>
  </g>
</svg>